<?xml version="1.0" encoding="UTF-8"?>
<!DOCTYPE svg PUBLIC "-//W3C//DTD SVG 1.1//EN" "http://www.w3.org/Graphics/SVG/1.1/DTD/svg11.dtd">
<svg version="1.1" xmlns="http://www.w3.org/2000/svg" xmlns:xlink="http://www.w3.org/1999/xlink" x="0" y="0" width="1575" height="935" viewBox="0, 0, 1575, 935">
  <defs>
    <clipPath id="Clip_1">
      <path d="M1,935.479 L1580.651,935.479 L1580.651,0.643 L1,0.643 z"/>
    </clipPath>
  </defs>
  <g id="Layer_1">
    <g clip-path="url(#Clip_1)">
      <path d="M-3.5,951.977 L1596.5,951.977 L1596.5,-4.978 L-3.5,-4.978 z" fill="#FCE9E7"/>
      <path d="M-13.5,941.977 L1574.736,941.977 C1346.021,497.2 1080.645,628.565 746.936,355.307 C641.208,268.729 423.743,-122.905 -13.5,39.774 z" fill="#FCE9E7"/>
      <path d="M-13.5,941.977 L1569.184,941.977 C1340.055,500.884 1076.435,631.799 743.926,358.597 C637.253,270.539 420.031,-115.773 -13.5,45.922 z" fill="#FCE8E6"/>
      <path d="M-13.5,941.977 L1563.633,941.977 C1334.089,504.567 1071.614,635.773 740.917,361.886 C633.099,272.59 416.32,-108.64 -13.5,52.069 z" fill="#FCE7E5"/>
      <path d="M-13.5,941.977 L1558.081,941.977 C1328.124,508.251 1067.119,639.347 737.907,365.176 C629.046,274.516 412.608,-101.507 -13.5,58.216 z" fill="#FCE6E4"/>
      <path d="M-13.5,941.977 L1552.53,941.977 C1322.157,511.935 1062.637,642.904 734.898,368.466 C624.996,276.438 408.897,-94.375 -13.5,64.364 z" fill="#FCE5E3"/>
      <path d="M-13.5,941.977 L1546.979,941.977 C1316.192,515.619 1058.168,646.443 731.888,371.756 C620.947,278.357 405.186,-87.242 -13.5,70.511 z" fill="#FBE4E2"/>
      <path d="M-13.499,941.977 L1541.427,941.977 C1310.228,519.302 1053.711,649.962 728.879,375.045 C616.9,280.273 401.475,-80.109 -13.499,76.658 z" fill="#FBE3E2"/>
      <path d="M-13.5,941.977 L1535.875,941.977 C1304.26,522.986 1049.266,653.466 725.869,378.335 C612.854,282.186 397.763,-72.977 -13.5,82.805 z" fill="#FBE2E1"/>
      <path d="M-13.5,941.977 L1530.324,941.977 C1298.296,526.669 1044.832,656.955 722.86,381.625 C608.809,284.096 394.051,-65.844 -13.5,88.953 z" fill="#FBE1E0"/>
      <path d="M-13.5,941.977 L1524.773,941.977 C1292.33,530.353 1040.41,660.428 719.85,384.914 C604.767,286.003 390.34,-58.712 -13.5,95.1 z" fill="#FBE0DF"/>
      <path d="M-13.5,941.977 L1519.22,941.977 C1286.365,534.037 1035.999,663.887 716.84,388.204 C600.726,287.906 386.628,-51.58 -13.5,101.247 z" fill="#FADFDE"/>
      <path d="M-13.5,941.977 L1513.67,941.977 C1280.399,537.72 1031.597,667.331 713.831,391.494 C596.687,289.807 382.917,-44.447 -13.5,107.394 z" fill="#FADFDD"/>
      <path d="M-13.5,941.977 L1508.118,941.977 C1274.434,541.404 1027.206,670.762 710.821,394.784 C592.649,291.705 379.206,-37.315 -13.5,113.542 z" fill="#FADEDD"/>
      <path d="M-13.5,941.977 L1502.567,941.977 C1268.469,545.088 1022.826,674.178 707.812,398.074 C588.615,293.599 375.494,-30.182 -13.5,119.689 z" fill="#FADDDC"/>
      <path d="M-13.5,941.977 L1497.016,941.977 C1262.503,548.772 1018.455,677.584 704.802,401.364 C584.582,295.491 371.783,-23.049 -13.5,125.837 z" fill="#FADCDB"/>
      <path d="M-13.5,941.977 L1491.464,941.977 C1256.537,552.455 1014.094,680.976 701.792,404.653 C580.55,297.379 368.071,-15.917 -13.5,131.984 z" fill="#F9DBDB"/>
      <path d="M-13.5,941.977 L1485.913,941.977 C1250.571,556.138 1009.742,684.356 698.783,407.943 C576.521,299.265 364.359,-8.784 -13.5,138.131 z" fill="#F9DBDA"/>
      <path d="M-13.5,941.977 L1480.361,941.977 C1244.606,559.823 1005.399,687.725 695.773,411.233 C572.495,301.147 360.648,-1.651 -13.5,144.278 z" fill="#F9DAD9"/>
      <path d="M-13.5,941.977 L1474.81,941.977 C1238.641,563.505 1001.065,691.081 692.764,414.522 C568.47,303.026 356.937,5.48 -13.5,150.425 z" fill="#F9D9D9"/>
      <path d="M-13.5,941.977 L1469.258,941.977 C1232.675,567.19 996.74,694.428 689.754,417.812 C564.447,304.902 353.225,12.613 -13.5,156.573 z" fill="#F9D8D8"/>
      <path d="M-13.5,941.977 L1463.707,941.977 C1226.71,570.873 992.424,697.765 686.745,421.102 C560.427,306.775 349.514,19.746 -13.5,162.72 z" fill="#F8D7D7"/>
      <path d="M-13.5,941.977 L1458.155,941.977 C1220.744,574.557 988.115,701.092 683.735,424.392 C556.409,308.645 345.802,26.878 -13.5,168.868 z" fill="#F8D7D7"/>
      <path d="M-13.5,941.977 L1452.604,941.977 C1214.778,578.241 983.815,704.408 680.726,427.682 C552.394,310.513 342.09,34.011 -13.5,175.015 z" fill="#F8D6D6"/>
      <path d="M-13.5,941.977 L1447.053,941.977 C1208.813,581.924 979.522,707.715 677.716,430.971 C548.381,312.377 338.379,41.144 -13.5,181.162 z" fill="#F8D5D5"/>
      <path d="M-13.5,941.977 L1441.501,941.977 C1202.847,585.609 975.237,711.013 674.707,434.261 C544.37,314.238 334.668,48.276 -13.5,187.31 z" fill="#F7D4D5"/>
      <path d="M-13.5,941.977 L1435.949,941.977 C1196.882,589.291 970.961,714.302 671.697,437.551 C540.362,316.096 330.957,55.408 -13.5,193.456 z" fill="#F7D3D4"/>
      <path d="M-13.5,941.977 L1430.397,941.977 C1190.916,592.975 966.69,717.582 668.687,440.841 C536.356,317.952 327.245,62.541 -13.5,199.604 z" fill="#F7D2D3"/>
      <path d="M-13.5,941.977 L1424.847,941.977 C1184.951,596.659 962.428,720.855 665.678,444.13 C532.354,319.804 323.533,69.674 -13.5,205.751 z" fill="#F7D2D3"/>
      <path d="M-13.5,941.977 L1419.295,941.977 C1178.985,600.343 958.172,724.12 662.668,447.42 C528.353,321.652 319.822,76.806 -13.5,211.898 z" fill="#F7D1D2"/>
      <path d="M-13.5,941.977 L1413.744,941.977 C1173.02,604.027 953.923,727.375 659.659,450.71 C524.355,323.498 316.111,83.939 -13.5,218.046 z" fill="#F6D0D1"/>
      <path d="M-13.5,941.977 L1408.192,941.977 C1167.055,607.71 949.682,730.625 656.649,453.999 C520.36,325.342 312.399,91.071 -13.5,224.193 z" fill="#F6CFD1"/>
      <path d="M-13.5,941.977 L1402.641,941.977 C1161.088,611.394 945.445,733.868 653.64,457.289 C516.368,327.182 308.688,98.204 -13.5,230.34 z" fill="#F6CFD0"/>
      <path d="M-13.5,941.977 L1397.089,941.977 C1155.123,615.078 941.216,737.103 650.63,460.58 C512.378,329.019 304.976,105.336 -13.5,236.487 z" fill="#F6CECF"/>
      <path d="M-13.5,941.977 L1391.538,941.977 C1149.157,618.761 936.993,740.331 647.62,463.869 C508.392,330.853 301.265,112.469 -13.5,242.635 z" fill="#F6CDCF"/>
      <path d="M-13.5,941.977 L1385.986,941.977 C1143.191,622.445 932.777,743.553 644.611,467.159 C504.408,332.684 297.553,119.602 -13.5,248.782 z" fill="#F5CCCE"/>
      <path d="M-13.5,941.977 L1380.435,941.977 C1137.227,626.128 928.566,746.768 641.601,470.449 C500.426,334.511 293.842,126.734 -13.5,254.929 z" fill="#F5CBCD"/>
      <path d="M-13.5,941.977 L1374.883,941.977 C1131.261,629.812 924.363,749.977 638.592,473.738 C496.449,336.336 290.13,133.867 -13.5,261.076 z" fill="#F5CACD"/>
      <path d="M-13.5,941.977 L1369.332,941.977 C1125.295,633.496 920.164,753.18 635.582,477.028 C492.474,338.158 286.419,140.999 -13.5,267.224 z" fill="#F5CACC"/>
      <path d="M-13.5,941.977 L1363.78,941.977 C1119.33,637.179 915.971,756.377 632.573,480.318 C488.501,339.977 282.707,148.131 -13.5,273.371 z" fill="#F4C9CC"/>
      <path d="M-13.5,941.977 L1358.229,941.977 C1113.364,640.864 911.783,759.571 629.563,483.608 C484.532,341.793 278.996,155.264 -13.5,279.519 z" fill="#F4C8CB"/>
      <path d="M-13.5,941.977 L1352.678,941.977 C1107.398,644.547 907.602,762.755 626.554,486.897 C480.566,343.605 275.284,162.396 -13.5,285.666 z" fill="#F4C7CA"/>
      <path d="M-13.5,941.977 L1347.126,941.977 C1101.433,648.231 903.425,765.937 623.544,490.187 C476.604,345.415 271.573,169.529 -13.5,291.813 z" fill="#F4C6CA"/>
      <path d="M-13.5,941.977 L1341.575,941.977 C1095.468,651.914 899.254,769.114 620.535,493.477 C472.644,347.222 267.861,176.662 -13.5,297.96 z" fill="#F3C6C9"/>
      <path d="M-13.5,941.977 L1336.023,941.977 C1089.502,655.598 895.088,772.284 617.525,496.766 C468.687,349.025 264.15,183.794 -13.5,304.108 z" fill="#F3C5C8"/>
      <path d="M-13.5,941.977 L1330.472,941.977 C1083.536,659.282 890.927,775.451 614.516,500.056 C464.734,350.826 260.438,190.927 -13.5,310.255 z" fill="#F3C4C8"/>
      <path d="M-13.5,941.977 L1324.92,941.977 C1077.571,662.965 886.771,778.613 611.506,503.346 C460.784,352.623 256.727,198.059 -13.5,316.402 z" fill="#F3C3C7"/>
      <path d="M-13.5,941.977 L1319.369,941.977 C1071.605,666.649 882.62,781.77 608.496,506.636 C456.836,354.417 253.016,205.192 -13.5,322.549 z" fill="#F3C2C7"/>
      <path d="M-13.5,941.977 L1313.817,941.977 C1065.64,670.332 878.474,784.922 605.487,509.925 C452.894,356.208 249.304,212.324 -13.5,328.697 z" fill="#F3C1C6"/>
      <path d="M-13.5,941.977 L1308.266,941.977 C1059.675,674.016 874.332,788.072 602.477,513.215 C448.953,357.997 245.592,219.456 -13.5,334.844 z" fill="#F2C1C5"/>
      <path d="M-13.5,941.977 L1302.714,941.977 C1053.709,677.7 870.195,791.216 599.468,516.505 C445.017,359.782 241.881,226.589 -13.5,340.991 z" fill="#F2C0C4"/>
      <path d="M-13.5,941.977 L1297.163,941.977 C1047.743,681.383 866.063,794.356 596.458,519.794 C441.083,361.563 238.169,233.722 -13.5,347.139 z" fill="#F2BFC4"/>
      <path d="M-13.5,941.977 L1291.611,941.977 C1041.777,685.068 861.936,797.493 593.449,523.084 C437.154,363.342 234.458,240.854 -13.5,353.286 z" fill="#F2BEC3"/>
      <path d="M-13.5,941.977 L1286.06,941.977 C1035.813,688.751 857.813,800.626 590.439,526.374 C433.227,365.118 230.747,247.987 -13.5,359.433 z" fill="#F2BDC2"/>
      <path d="M-13.5,941.977 L1280.509,941.977 C1029.847,692.435 853.692,803.756 587.429,529.664 C429.304,366.891 227.035,255.12 -13.5,365.581 z" fill="#F2BCC2"/>
      <path d="M-13.5,941.977 L1274.957,941.977 C1023.881,696.119 849.578,806.881 584.42,532.954 C425.386,368.66 223.324,262.252 -13.5,371.728 z" fill="#F1BCC1"/>
      <path d="M-13.5,941.977 L1269.405,941.977 C1017.916,699.802 845.468,810.004 581.41,536.244 C421.47,370.426 219.612,269.384 -13.5,377.875 z" fill="#F1BBC1"/>
      <path d="M-13.5,941.977 L1263.854,941.977 C1011.95,703.486 841.361,813.123 578.401,539.534 C417.558,372.189 215.901,276.517 -13.5,384.022 z" fill="#F1BAC0"/>
      <path d="M-13.5,941.977 L1258.303,941.977 C1005.984,707.169 837.26,816.24 575.391,542.823 C413.65,373.949 212.189,283.649 -13.5,390.169 z" fill="#F1B9BF"/>
      <path d="M-13.5,941.977 L1252.751,941.977 C1000.02,710.853 833.161,819.353 572.382,546.113 C409.745,375.705 208.478,290.782 -13.5,396.317 z" fill="#F1B8BF"/>
      <path d="M-13.5,941.977 L1247.2,941.977 C994.054,714.537 829.066,822.463 569.372,549.403 C405.845,377.459 204.767,297.914 -13.5,402.464 z" fill="#F1B7BE"/>
      <path d="M-13.5,941.977 L1241.648,941.977 C988.088,718.22 824.976,825.571 566.362,552.693 C401.947,379.209 201.055,305.047 -13.5,408.611 z" fill="#F0B6BE"/>
      <path d="M-13.5,941.977 L1236.097,941.977 C982.122,721.904 820.891,828.675 563.353,555.982 C398.055,380.956 197.343,312.18 -13.5,414.759 z" fill="#F0B6BD"/>
      <path d="M-13.5,941.977 L1230.546,941.977 C976.157,725.587 816.808,831.777 560.343,559.272 C394.166,382.7 193.632,319.312 -13.5,420.906 z" fill="#F0B5BC"/>
      <path d="M-13.5,941.977 L1224.994,941.977 C970.191,729.272 812.729,834.876 557.334,562.562 C390.28,384.441 189.92,326.445 -13.5,427.053 z" fill="#F0B4BC"/>
      <path d="M-13.5,941.977 L1219.442,941.977 C964.226,732.956 808.652,837.974 554.324,565.852 C386.399,386.178 186.209,333.577 -13.5,433.201 z" fill="#F0B3BB"/>
      <path d="M-13.5,941.977 L1213.891,941.977 C958.261,736.639 804.582,841.068 551.315,569.141 C382.522,387.912 182.498,340.71 -13.5,439.348 z" fill="#F0B2BA"/>
      <path d="M-13.5,941.977 L1208.34,941.977 C952.295,740.323 800.514,844.161 548.305,572.431 C378.649,389.644 178.786,347.842 -13.5,445.495 z" fill="#EFB1BA"/>
      <path d="M-13.5,941.977 L1202.788,941.977 C946.329,744.006 796.449,847.25 545.295,575.721 C374.779,391.372 175.075,354.975 -13.5,451.643 z" fill="#EFB0B9"/>
      <path d="M-13.5,941.977 L1197.236,941.977 C940.363,747.69 792.389,850.337 542.286,579.01 C370.915,393.095 171.363,362.107 -13.5,457.789 z" fill="#EFAFB9"/>
      <path d="M-13.5,941.977 L1191.686,941.977 C934.398,751.373 788.33,853.423 539.276,582.3 C367.054,394.817 167.652,369.24 -13.5,463.937 z" fill="#EFAFB8"/>
      <path d="M-13.5,941.977 L1186.134,941.977 C928.433,755.057 784.276,856.507 536.267,585.59 C363.197,396.535 163.94,376.373 -13.5,470.084 z" fill="#EFAEB7"/>
      <path d="M-13.5,941.977 L1180.582,941.977 C922.467,758.741 780.226,859.589 533.257,588.88 C359.344,398.249 160.229,383.505 -13.5,476.232 z" fill="#EFADB7"/>
      <path d="M-13.5,941.977 L1175.031,941.977 C916.502,762.424 776.179,862.668 530.248,592.169 C355.496,399.96 156.518,390.638 -13.5,482.378 z" fill="#EEACB6"/>
      <path d="M-13.5,941.977 L1169.479,941.977 C910.536,766.108 772.135,865.747 527.238,595.459 C351.652,401.668 152.806,397.77 -13.5,488.526 z" fill="#EEABB5"/>
      <path d="M-13.5,941.977 L1163.928,941.977 C904.57,769.792 768.093,868.823 524.229,598.749 C347.812,403.373 149.094,404.902 -13.5,494.673 z" fill="#EEAAB5"/>
      <path d="M-13.5,941.977 L1158.376,941.977 C898.605,773.476 764.056,871.897 521.219,602.039 C343.978,405.074 145.383,412.035 -13.5,500.821 z" fill="#EEAAB4"/>
      <path d="M-13.5,941.977 L1152.825,941.977 C892.64,777.16 760.021,874.97 518.209,605.329 C340.146,406.772 141.671,419.167 -13.5,506.968 z" fill="#EEA9B4"/>
      <path d="M-13.5,941.977 L1147.273,941.977 C886.674,780.843 755.99,878.042 515.2,608.619 C336.32,408.467 137.96,426.3 -13.5,513.116 z" fill="#EEA8B3"/>
      <path d="M-13.5,941.977 L1141.722,941.977 C880.708,784.527 752.345,880.771 512.19,611.909 C332.785,409.903 134.249,433.433 -13.5,519.262 z" fill="#EEA7B2"/>
      <path d="M-13.5,941.977 L1136.171,941.977 C874.743,788.21 748.136,884.004 509.181,615.198 C328.831,411.713 130.537,440.565 -13.5,525.41 z" fill="#EEA6B2"/>
      <path d="M-13.5,941.977 L1130.619,941.977 C868.777,791.894 743.927,887.238 506.171,618.488 C324.877,413.523 126.826,447.698 -13.5,531.557 z" fill="#EDA6B1"/>
      <path d="M485.881,823.128 C483.578,826.343 481.617,833.66 482.324,838.426 C445.596,839.064 402.484,786.058 441.036,725.869 C511.826,735.627 524.16,802.815 499.857,830.31 C496.71,826.73 489.848,823.47 485.881,823.128" fill="#F9DBDD"/>
      <path d="M552.612,703.846 C554.96,707.037 561.321,711.164 566.063,711.985 C555.325,747.095 491.58,771.671 446.234,716.453 C477.4,652.139 545.134,661.166 563.76,692.788 C559.361,694.681 554.162,700.175 552.612,703.846" fill="#F9DBDD"/>
      <path d="M459.776,603.531 C463.538,602.277 469.443,597.512 471.677,593.249 C501.748,614.315 505.464,682.552 438.893,708.588 C387.368,659.092 416.869,597.444 452.709,589.487 C453.119,594.275 456.767,600.932 459.776,603.531" fill="#F9DBDD"/>
      <path d="M335.684,660.824 C335.661,656.857 332.948,649.767 329.597,646.347 C358.916,624.256 424.94,641.788 429.158,713.147 C366.143,746.866 316.67,699.742 320.158,663.219 C324.832,664.266 332.287,662.899 335.684,660.824" fill="#F9DBDD"/>
      <path d="M351.825,796.545 C348.04,795.336 340.471,795.746 336.162,797.844 C324.216,763.145 361.309,705.783 430.457,723.817 C443.065,794.15 382.945,826.639 349.294,812.048 C351.757,807.921 352.714,800.398 351.825,796.545" fill="#F9DBDD"/>
      <path d="M441.036,725.869 L441.606,719.895 L446.234,716.453 L440.853,713.854 L438.893,708.588 L434.88,712.691 L429.158,713.147 L431.916,718.026 L430.457,723.817 L436.066,722.472 z" fill="#AB8072"/>
      <path d="M485.242,717.16 C472.498,719.234 468.28,713.17 451.82,716.475" fill-opacity="0" stroke="#F3B882" stroke-width="1.966" stroke-linecap="round" stroke-linejoin="round"/>
      <path d="M468.44,762.734 C469.854,754.526 454.829,743.492 445.231,730.884" fill-opacity="0" stroke="#F3B882" stroke-width="1.966" stroke-linecap="round" stroke-linejoin="round"/>
      <path d="M450.36,763.532 C440.42,755.324 440.83,742.853 440.944,731.91" fill-opacity="0" stroke="#F3B882" stroke-width="1.966" stroke-linecap="round" stroke-linejoin="round"/>
      <path d="M425.829,729.882 C419.195,739.115 409.186,752.247 399.429,756.738" fill-opacity="0" stroke="#F3B882" stroke-width="1.966" stroke-linecap="round" stroke-linejoin="round"/>
      <path d="M424.415,725.823 C417.394,729.06 408.138,742.785 399.224,744.997" fill-opacity="0" stroke="#F3B882" stroke-width="1.966" stroke-linecap="round" stroke-linejoin="round"/>
      <path d="M425.419,718.733 C418.67,719.462 398.995,714.811 392.703,719.622" fill-opacity="0" stroke="#F3B882" stroke-width="1.966" stroke-linecap="round" stroke-linejoin="round"/>
      <path d="M423.162,710.776 C414.043,707.402 412.721,700.448 404.034,695.957" fill-opacity="0" stroke="#F3B882" stroke-width="1.966" stroke-linecap="round" stroke-linejoin="round"/>
      <path d="M431.94,707.197 C427.54,699.764 413.359,686.45 418.329,680.819" fill-opacity="0" stroke="#F3B882" stroke-width="1.966" stroke-linecap="round" stroke-linejoin="round"/>
      <path d="M442.655,708.906 C448.902,698.898 456.175,681.799 451.592,674.936" fill-opacity="0" stroke="#F3B882" stroke-width="1.966" stroke-linecap="round" stroke-linejoin="round"/>
      <path d="M436.613,680.432 C439.737,685.151 440.216,700.54 438.141,705.283" fill-opacity="0" stroke="#F3B882" stroke-width="1.966" stroke-linecap="round" stroke-linejoin="round"/>
      <path d="M474.459,693.746 C465.362,695.569 455.65,710.457 447.511,713.262" fill-opacity="0" stroke="#F3B882" stroke-width="1.966" stroke-linecap="round" stroke-linejoin="round"/>
      <path d="M477.947,735.193 C466.137,738.271 453.211,727.692 447.032,722.471" fill-opacity="0" stroke="#F3B882" stroke-width="1.966" stroke-linecap="round" stroke-linejoin="round"/>
      <path d="M434.857,729.973 C429.385,739.617 423.617,757.902 429.59,762.666" fill-opacity="0" stroke="#F3B882" stroke-width="1.966" stroke-linecap="round" stroke-linejoin="round"/>
      <path d="M834.83,907.3 C831.616,909.603 827.398,915.918 826.531,920.638 C791.564,909.444 767.74,845.403 823.568,800.785 C887.473,832.749 877.601,900.369 845.728,918.586 C843.904,914.186 838.478,908.897 834.83,907.3" fill="#F9DBDD"/>
      <path d="M936.307,815.741 C937.516,819.525 942.212,825.475 946.43,827.756 C924.999,857.576 856.741,860.403 831.525,793.535 C881.682,742.626 942.942,772.925 950.443,808.855 C945.655,809.243 938.952,812.777 936.307,815.741" fill="#F9DBDD"/>
      <path d="M880.61,690.941 C884.577,690.963 891.69,688.342 895.178,685.013 C916.882,714.629 898.506,780.425 827.101,783.731 C794.186,720.305 841.921,671.403 878.421,675.37 C877.281,680.044 878.581,687.521 880.61,690.941" fill="#F9DBDD"/>
      <path d="M744.679,705.351 C745.944,701.612 745.648,693.997 743.573,689.688 C778.432,678.174 835.332,715.997 816.409,784.917 C745.921,796.614 714.186,736.106 729.221,702.637 C733.314,705.145 740.792,706.217 744.679,705.351" fill="#F9DBDD"/>
      <path d="M716.398,839.087 C713.206,836.716 705.911,834.687 701.146,835.279 C700.963,798.573 754.527,756.146 814.221,795.428 C803.573,866.104 736.209,877.57 709.034,852.948 C712.682,849.825 716.01,843.031 716.398,839.087" fill="#F9DBDD"/>
      <path d="M823.568,800.785 L826.03,795.313 L831.524,793.535 L827.261,789.34 L827.101,783.731 L821.995,786.331 L816.409,784.917 L817.458,790.434 L814.22,795.428 L819.965,795.974 z" fill="#AB8072"/>
      <path d="M868.253,806.735 C855.509,804.592 853.457,797.502 836.814,795.336" fill-opacity="0" stroke="#F3B882" stroke-width="1.966" stroke-linecap="round" stroke-linejoin="round"/>
      <path d="M837.703,844.513 C841.67,837.172 830.977,821.897 825.939,806.872" fill-opacity="0" stroke="#F3B882" stroke-width="1.966" stroke-linecap="round" stroke-linejoin="round"/>
      <path d="M820.308,839.451 C813.537,828.485 817.914,816.812 821.562,806.462" fill-opacity="0" stroke="#F3B882" stroke-width="1.966" stroke-linecap="round" stroke-linejoin="round"/>
      <path d="M807.883,799.69 C798.626,806.302 784.942,815.536 774.26,816.653" fill-opacity="0" stroke="#F3B882" stroke-width="1.966" stroke-linecap="round" stroke-linejoin="round"/>
      <path d="M807.859,795.404 C800.176,796.202 786.982,806.234 777.839,805.481" fill-opacity="0" stroke="#F3B882" stroke-width="1.966" stroke-linecap="round" stroke-linejoin="round"/>
      <path d="M811.074,788.998 C804.439,787.539 787.324,776.824 779.823,779.354" fill-opacity="0" stroke="#F3B882" stroke-width="1.966" stroke-linecap="round" stroke-linejoin="round"/>
      <path d="M811.508,780.745 C803.939,774.635 804.919,767.613 798.154,760.568" fill-opacity="0" stroke="#F3B882" stroke-width="1.966" stroke-linecap="round" stroke-linejoin="round"/>
      <path d="M820.946,780.175 C819.168,771.739 810.025,754.55 816.546,750.833" fill-opacity="0" stroke="#F3B882" stroke-width="1.966" stroke-linecap="round" stroke-linejoin="round"/>
      <path d="M830.567,785.236 C839.686,777.758 852.066,763.896 849.922,755.94" fill-opacity="0" stroke="#F3B882" stroke-width="1.966" stroke-linecap="round" stroke-linejoin="round"/>
      <path d="M833.987,756.328 C835.4,761.8 830.931,776.527 827.443,780.357" fill-opacity="0" stroke="#F3B882" stroke-width="1.966" stroke-linecap="round" stroke-linejoin="round"/>
      <path d="M865.54,781.087 C856.352,779.901 842.377,790.867 833.759,790.937" fill-opacity="0" stroke="#F3B882" stroke-width="1.966" stroke-linecap="round" stroke-linejoin="round"/>
      <path d="M855.555,821.464 C843.38,820.574 834.512,806.416 830.339,799.485" fill-opacity="0" stroke="#F3B882" stroke-width="1.966" stroke-linecap="round" stroke-linejoin="round"/>
      <path d="M816.409,802.678 C808.11,810.065 796.807,825.522 800.929,831.974" fill-opacity="0" stroke="#F3B882" stroke-width="1.966" stroke-linecap="round" stroke-linejoin="round"/>
      <path d="M308.189,553.329 C309.169,557.159 313.524,563.383 317.605,565.892 C294.487,594.434 226.182,593.409 204.843,525.195 C257.804,477.227 317.24,510.946 322.666,547.242 C317.901,547.355 310.993,550.502 308.189,553.329" fill="#F9DBDD"/>
      <path d="M259.65,425.537 C263.617,425.788 270.867,423.577 274.537,420.464 C294.532,451.254 272.44,515.893 200.966,515.164 C171.715,449.932 222.169,403.844 258.35,409.874 C256.983,414.48 257.849,422.003 259.65,425.537" fill="#F9DBDD"/>
      <path d="M123.155,432.206 C124.614,428.524 124.751,420.932 122.904,416.486 C158.379,406.979 213.027,447.971 190.228,515.711 C119.165,523.394 90.918,461.171 107.857,428.592 C111.778,431.351 119.233,432.833 123.155,432.206" fill="#F9DBDD"/>
      <path d="M87.293,564.113 C84.261,561.582 77.056,559.096 72.292,559.462 C74.207,522.801 130.063,483.497 187.447,526.107 C172.788,596.053 104.894,603.691 79.154,577.518 C82.961,574.623 86.7,568.034 87.293,564.113" fill="#F9DBDD"/>
      <path d="M201.673,638.961 C198.299,641.081 193.762,647.146 192.576,651.796 C158.333,638.642 138.202,573.347 196.452,531.967 C258.465,567.51 244.717,634.446 211.91,650.861 C210.337,646.324 205.207,640.762 201.673,638.961" fill="#F9DBDD"/>
      <path d="M204.842,525.195 L200.624,520.909 L200.967,515.164 L195.495,517.603 L190.228,515.711 L190.798,521.411 L187.447,526.107 L192.964,527.11 L196.452,531.966 L199.029,526.814 z" fill="#AB8072"/>
      <path d="M226.569,485.708 C219.98,496.812 212.616,496.15 204.569,510.878" fill-opacity="0" stroke="#F3B882" stroke-width="1.966" stroke-linecap="round" stroke-linejoin="round"/>
      <path d="M250.713,527.886 C245.31,521.526 227.185,525.948 211.362,525.196" fill-opacity="0" stroke="#F3B882" stroke-width="1.966" stroke-linecap="round" stroke-linejoin="round"/>
      <path d="M239.679,542.249 C227.026,544.574 217.724,536.253 209.403,529.117" fill-opacity="0" stroke="#F3B882" stroke-width="1.966" stroke-linecap="round" stroke-linejoin="round"/>
      <path d="M198.14,539.422 C200.944,550.434 204.592,566.553 201.742,576.903" fill-opacity="0" stroke="#F3B882" stroke-width="1.966" stroke-linecap="round" stroke-linejoin="round"/>
      <path d="M194.127,537.872 C192.098,545.35 196.658,561.263 192.623,569.516" fill-opacity="0" stroke="#F3B882" stroke-width="1.966" stroke-linecap="round" stroke-linejoin="round"/>
      <path d="M189.316,532.56 C185.554,538.214 169.344,550.297 169.003,558.186" fill-opacity="0" stroke="#F3B882" stroke-width="1.966" stroke-linecap="round" stroke-linejoin="round"/>
      <path d="M181.793,529.162 C173.335,534.018 167.179,530.53 158.128,534.292" fill-opacity="0" stroke="#F3B882" stroke-width="1.966" stroke-linecap="round" stroke-linejoin="round"/>
      <path d="M184.688,520.157 C176.161,518.743 156.852,521.046 155.734,513.636" fill-opacity="0" stroke="#F3B882" stroke-width="1.966" stroke-linecap="round" stroke-linejoin="round"/>
      <path d="M192.873,513.021 C189.226,501.805 180.79,485.276 172.605,484.363" fill-opacity="0" stroke="#F3B882" stroke-width="1.966" stroke-linecap="round" stroke-linejoin="round"/>
      <path d="M167.179,499.365 C172.81,500.026 184.893,509.533 187.219,514.183" fill-opacity="0" stroke="#F3B882" stroke-width="1.966" stroke-linecap="round" stroke-linejoin="round"/>
      <path d="M201.696,478.938 C197.273,487.077 202.425,504.061 199.348,512.131" fill-opacity="0" stroke="#F3B882" stroke-width="1.966" stroke-linecap="round" stroke-linejoin="round"/>
      <path d="M235.689,502.876 C230.468,513.91 214.053,517.034 206.074,518.401" fill-opacity="0" stroke="#F3B882" stroke-width="1.966" stroke-linecap="round" stroke-linejoin="round"/>
      <path d="M203.999,532.56 C207.874,542.956 218.18,559.097 225.703,557.616" fill-opacity="0" stroke="#F3B882" stroke-width="1.966" stroke-linecap="round" stroke-linejoin="round"/>
      <path d="M767.102,390.542 C768.994,386.073 769.359,376.816 767.227,371.323 C810.801,360.63 876.552,412.109 846.915,494.303 C759.909,501.85 727.011,425.104 748.498,385.73 C753.252,389.173 762.28,391.225 767.102,390.542" fill="#FFFFFE"/>
      <path d="M719.908,550.799 C716.249,547.607 707.54,544.415 701.692,544.711 C704.964,499.981 774.26,453.375 843.265,506.911 C823.568,592.019 740.393,599.611 709.603,566.986 C714.345,563.543 719.076,555.564 719.908,550.799" fill="#FFFFFE"/>
      <path d="M857.721,645.185 C853.594,647.693 847.871,654.989 846.344,660.665 C804.805,643.704 781.875,563.407 854.141,514.321 C928.989,559.348 910.499,640.808 869.963,660.004 C868.14,654.418 862.03,647.465 857.721,645.185" fill="#FFFFFE"/>
      <path d="M990.111,543.275 C991.206,547.994 996.358,555.7 1001.259,558.891 C972.329,593.158 888.885,590.148 864.537,506.25 C930.493,448.997 1002.24,491.75 1007.985,536.23 C1002.103,536.23 993.599,539.9 990.111,543.275" fill="#FFFFFE"/>
      <path d="M934.072,385.891 C938.928,386.301 947.843,383.77 952.402,380.077 C976.045,418.219 947.364,496.652 860.068,493.894 C825.984,413.454 888.817,358.441 932.91,366.717 C931.086,372.326 931.975,381.537 934.072,385.891" fill="#FFFFFE"/>
      <path d="M846.914,494.304 L847.871,501.576 L843.266,506.911 L850.379,508.575 L854.141,514.321 L857.811,508.348 L864.537,506.25 L859.909,501.189 L860.068,493.894 L853.776,497.017 z" fill="#AB8072"/>
      <path d="M796.592,516.691 C811.211,510.741 817.914,516.828 836.609,508.416" fill-opacity="0" stroke="#F8CB89" stroke-width="2.402" stroke-linecap="round" stroke-linejoin="round"/>
      <path d="M804.258,457.774 C804.805,467.942 825.711,477.045 840.575,489.447" fill-opacity="0" stroke="#F8CB89" stroke-width="2.402" stroke-linecap="round" stroke-linejoin="round"/>
      <path d="M825.597,451.938 C839.664,459.005 842.56,474.007 845.386,487.076" fill-opacity="0" stroke="#F8CB89" stroke-width="2.402" stroke-linecap="round" stroke-linejoin="round"/>
      <path d="M863.944,485.39 C869.347,472.617 877.737,454.218 888.156,446.216" fill-opacity="0" stroke="#F8CB89" stroke-width="2.402" stroke-linecap="round" stroke-linejoin="round"/>
      <path d="M866.726,489.857 C874.227,484.112 881.545,465.229 891.577,460.145" fill-opacity="0" stroke="#F8CB89" stroke-width="2.402" stroke-linecap="round" stroke-linejoin="round"/>
      <path d="M867.477,498.59 C875.32,495.877 899.99,496.082 906.212,488.65" fill-opacity="0" stroke="#F8CB89" stroke-width="2.402" stroke-linecap="round" stroke-linejoin="round"/>
      <path d="M872.311,507.435 C884.098,508.985 887.54,516.943 899.122,519.928" fill-opacity="0" stroke="#F8CB89" stroke-width="2.402" stroke-linecap="round" stroke-linejoin="round"/>
      <path d="M862.827,514.07 C870.077,521.775 890.573,533.791 886.173,541.839" fill-opacity="0" stroke="#F8CB89" stroke-width="2.402" stroke-linecap="round" stroke-linejoin="round"/>
      <path d="M849.581,514.959 C844.839,528.593 840.804,550.912 848.122,557.843" fill-opacity="0" stroke="#F8CB89" stroke-width="2.402" stroke-linecap="round" stroke-linejoin="round"/>
      <path d="M864.491,547.265 C859.498,542.477 854.779,524.261 855.942,518.037" fill-opacity="0" stroke="#F8CB89" stroke-width="2.402" stroke-linecap="round" stroke-linejoin="round"/>
      <path d="M815.794,541.656 C826.121,537.005 833.668,516.646 842.628,511.083" fill-opacity="0" stroke="#F8CB89" stroke-width="2.402" stroke-linecap="round" stroke-linejoin="round"/>
      <path d="M800.404,493.209 C813.65,486.324 831.934,495.443 840.713,499.98" fill-opacity="0" stroke="#F8CB89" stroke-width="2.402" stroke-linecap="round" stroke-linejoin="round"/>
      <path d="M853.16,487.737 C857.082,474.759 859.019,451.413 850.561,447.31" fill-opacity="0" stroke="#F8CB89" stroke-width="2.402" stroke-linecap="round" stroke-linejoin="round"/>
      <path d="M40.641,296.041 C42.898,291.23 43.65,281.131 41.576,275.089 C89.504,265.172 159.085,323.947 123.519,412.337 C28.352,417.079 -4.443,332.086 20.578,290.045 C25.594,293.989 35.374,296.565 40.641,296.041" fill="#FFFFFE"/>
      <path d="M91.807,141.034 C95.295,138.595 99.877,131.937 100.881,126.922 C137.997,139.346 162.46,207.993 102.294,254.799 C34.577,219.78 46.113,147.805 80.339,128.814 C82.209,133.556 87.954,139.278 91.807,141.034" fill="#FFFFFE"/>
      <path d="M654.91,574.008 C659.173,574.121 666.811,571.454 670.596,567.988 C693.166,599.975 672.283,669.784 596.09,671.928 C562.211,603.623 614.077,552.441 652.927,557.388 C651.627,562.312 652.858,570.315 654.91,574.008" fill="#F9DBDD"/>
      <path d="M33.471,685.082 C33.357,680.819 30.279,673.318 26.631,669.762 C57.358,645.481 128.193,662.626 134.394,738.613 C67.982,776.094 14.092,727.009 16.965,687.955 C21.969,688.98 29.88,687.339 33.471,685.082" fill="#F9DBDD"/>
      <path d="M667.962,374.811 C672.795,372.6 679.92,365.429 682.268,359.49 C725.152,383.087 739.857,472.97 655.377,517.057 C579.959,458.835 610.258,372.907 656.597,357.21 C657.839,363.469 663.608,371.779 667.962,374.811" fill="#FFFFFE"/>
      <path d="M1050.916,886.554 C1051.782,890.703 1056.159,897.497 1060.399,900.369 C1034.569,929.78 961.818,925.744 941.961,852.151 C1000.462,803.293 1062.36,841.8 1066.601,880.695 C1061.494,880.603 1054.017,883.658 1050.916,886.554" fill="#FFFFFE"/>
      <path d="M332.036,876.248 C327.875,877.16 321.093,881.561 318.266,885.824 C288.707,860.152 292.344,787.356 365.835,767.111 C415.012,825.362 376.847,887.442 337.941,891.934 C338.032,886.827 334.92,879.349 332.036,876.248" fill="#F9DBDD"/>
      <path d="M1176.08,804.182 C1177.356,808.241 1182.395,814.578 1186.887,816.995 C1164.088,848.822 1091.292,851.991 1064.253,780.723 C1117.67,726.326 1183.033,758.517 1191.127,796.841 C1186.043,797.229 1178.884,801.013 1176.08,804.182" fill="#F9DBDD"/>
      <path d="M1357.123,859.56 C1359.791,862.866 1366.79,866.947 1371.852,867.563 C1362.208,905.499 1295.545,934.956 1244.43,878.438 C1274.364,808.309 1346.978,814.488 1368.454,847.226 C1363.872,849.46 1358.583,855.593 1357.123,859.56" fill="#FFFFFE"/>
      <path d="M501.258,865.328 C498.568,862.045 491.557,857.986 486.485,857.417 C495.946,819.411 562.461,789.637 613.861,845.949 C584.245,916.191 511.609,910.355 489.962,877.708 C494.555,875.474 499.81,869.317 501.258,865.328" fill="#F9DBDD"/>
      <path d="M1081.876,639.918 C1086.664,642.198 1096.741,643.019 1102.805,640.967 C1112.472,688.958 1053.31,758.22 965.102,722.152 C960.884,626.969 1046.082,594.617 1087.963,619.901 C1083.996,624.894 1081.374,634.651 1081.876,639.918" fill="#FFFFFE"/>
      <path d="M286.906,610.759 C292.172,611.398 301.998,609.003 307.105,605.151 C331.352,647.67 296.971,732.025 201.901,725.528 C167.966,636.476 238.664,579.024 286.393,589.83 C284.204,595.826 284.774,605.903 286.906,610.759" fill="#FFFFFE"/>
      <path d="M104.677,609.14 C106.934,604.329 107.686,594.253 105.6,588.211 C153.534,578.271 223.115,637.046 187.561,725.436 C92.388,730.201 59.581,645.185 84.614,603.144 C89.63,607.112 99.41,609.664 104.677,609.14" fill="#FFFFFE"/>
      <path d="M46.825,781.931 C42.961,778.328 33.602,774.498 27.184,774.59 C32.576,725.96 109.989,677.924 183.047,739.07 C158.174,831.062 67.184,835.963 34.936,799.19 C40.248,795.61 45.697,787.129 46.825,781.931" fill="#FFFFFE"/>
      <path d="M193.295,890.36 C188.667,892.937 182.135,900.642 180.254,906.753 C135.649,886.622 113.876,798.185 194.628,747.573 C274.401,799.645 250.987,887.671 206.028,907.004 C204.273,900.825 197.878,893.028 193.295,890.36" fill="#FFFFFE"/>
      <path d="M341.668,784.575 C342.706,789.773 348.006,798.368 353.25,802.039 C320.306,838.243 229.431,831.586 206.245,739.206 C280.454,679.405 356.955,728.901 361.435,777.598 C355.04,777.371 345.624,781.041 341.668,784.575" fill="#FFFFFE"/>
      <path d="M201.901,725.527 L194.548,728.673 L187.561,725.435 L187.96,733.415 L183.047,739.069 L190.422,741.167 L194.628,747.573 L198.549,741.189 L206.244,739.206 L201.103,733.506 z" fill="#AB8072"/>
      <path d="M163.383,679.383 C173.984,692.947 169.584,701.817 184.015,718.915" fill-opacity="0" stroke="#F8CB89" stroke-width="2.621" stroke-linecap="round" stroke-linejoin="round"/>
      <path d="M227.481,669.853 C216.971,673.456 213.676,698.124 205.082,717.411" fill-opacity="0" stroke="#F8CB89" stroke-width="2.621" stroke-linecap="round" stroke-linejoin="round"/>
      <path d="M239.964,690.485 C236.76,707.356 221.896,714.902 209.003,721.742" fill-opacity="0" stroke="#F8CB89" stroke-width="2.621" stroke-linecap="round" stroke-linejoin="round"/>
      <path d="M216.333,740.711 C231.357,742.558 253.13,745.863 264.643,754.413" fill-opacity="0" stroke="#F8CB89" stroke-width="2.621" stroke-linecap="round" stroke-linejoin="round"/>
      <path d="M212.469,744.974 C220.745,751.108 242.757,753.136 251.067,762.142" fill-opacity="0" stroke="#F8CB89" stroke-width="2.621" stroke-linecap="round" stroke-linejoin="round"/>
      <path d="M203.543,748.349 C208.73,755.781 215.877,781.726 225.543,786.012" fill-opacity="0" stroke="#F8CB89" stroke-width="2.621" stroke-linecap="round" stroke-linejoin="round"/>
      <path d="M195.689,756.077 C197.592,768.89 190.297,774.886 190.605,787.949" fill-opacity="0" stroke="#F8CB89" stroke-width="2.621" stroke-linecap="round" stroke-linejoin="round"/>
      <path d="M185.908,748.098 C179.992,757.993 173.506,783.094 163.759,780.882" fill-opacity="0" stroke="#F8CB89" stroke-width="2.621" stroke-linecap="round" stroke-linejoin="round"/>
      <path d="M181.006,734.51 C165.309,733.575 140.687,736.015 135.568,745.773" fill-opacity="0" stroke="#F8CB89" stroke-width="2.621" stroke-linecap="round" stroke-linejoin="round"/>
      <path d="M151.596,759.77 C155.13,753.113 172.81,742.694 179.684,742.079" fill-opacity="0" stroke="#F8CB89" stroke-width="2.621" stroke-linecap="round" stroke-linejoin="round"/>
      <path d="M142.921,707.015 C150.866,716.453 174.497,718.254 183.001,726.006" fill-opacity="0" stroke="#F8CB89" stroke-width="2.621" stroke-linecap="round" stroke-linejoin="round"/>
      <path d="M189.145,676.373 C200.316,688.228 196.212,710.138 194.104,720.693" fill-opacity="0" stroke="#F8CB89" stroke-width="2.621" stroke-linecap="round" stroke-linejoin="round"/>
      <path d="M210.656,730.063 C225.429,730.337 250.496,725.389 252.286,715.313" fill-opacity="0" stroke="#F8CB89" stroke-width="2.621" stroke-linecap="round" stroke-linejoin="round"/>
      <path d="M716.42,842.963 C715.804,847.34 717.64,855.57 720.774,859.879 C684.981,879.417 615.217,849.483 622.113,770.372 C696.813,743.47 743.619,803.247 733.872,842.849 C728.902,840.956 720.489,841.253 716.42,842.963" fill="#FFFFFE"/>
      <path d="M720.581,691.146 C724.537,693.107 732.926,693.882 738.01,692.241 C745.545,732.321 695.502,789.408 622.387,758.402 C619.902,679.041 691.227,653.004 725.87,674.526 C722.496,678.653 720.216,686.769 720.581,691.146" fill="#FFFFFE"/>
      <path d="M577.497,640.283 C580.552,637.114 583.892,629.385 583.903,624.027 C624.348,629.271 663.185,694.498 611.113,754.458 C534.852,732.298 532.139,656.425 563.305,630.115 C566.189,634.606 573.188,639.28 577.497,640.283" fill="#FFFFFE"/>
      <path d="M484.889,760.659 C482.826,756.761 476.488,751.198 471.438,749.534 C488.901,712.669 562.929,695.911 603.863,763.965 C559.235,829.625 486.234,808.764 470.833,771.01 C475.986,769.642 482.609,764.421 484.889,760.659" fill="#FFFFFE"/>
      <path d="M570.76,885.915 C566.406,886.69 559.167,890.977 556.01,895.285 C526.36,867.289 533.291,791.688 610.646,773.792 C659.322,836.533 616.916,899.503 576.266,902.489 C576.54,897.154 573.633,889.244 570.76,885.915" fill="#FFFFFE"/>
      <path d="M622.114,770.372 L619.606,764.216 L622.387,758.402 L615.753,758.631 L611.114,754.458 L609.267,760.568 L603.864,763.965 L609.108,767.34 L610.646,773.792 L615.491,769.574 z" fill="#AB8072"/>
      <path d="M661.145,738.979 C649.666,747.62 642.37,743.812 627.893,755.553" fill-opacity="0" stroke="#F8CB89" stroke-width="2.184" stroke-linecap="round" stroke-linejoin="round"/>
      <path d="M668.11,792.555 C665.26,783.709 644.764,780.586 628.828,773.131" fill-opacity="0" stroke="#F8CB89" stroke-width="2.184" stroke-linecap="round" stroke-linejoin="round"/>
      <path d="M650.715,802.632 C636.705,799.691 630.663,787.197 625.157,776.345" fill-opacity="0" stroke="#F8CB89" stroke-width="2.184" stroke-linecap="round" stroke-linejoin="round"/>
      <path d="M609.232,782.158 C607.454,794.652 604.365,812.754 597.081,822.216" fill-opacity="0" stroke="#F8CB89" stroke-width="2.184" stroke-linecap="round" stroke-linejoin="round"/>
      <path d="M605.745,778.876 C600.501,785.67 598.461,803.977 590.823,810.748" fill-opacity="0" stroke="#F8CB89" stroke-width="2.184" stroke-linecap="round" stroke-linejoin="round"/>
      <path d="M603.065,771.375 C596.807,775.593 575.057,781.155 571.341,789.135" fill-opacity="0" stroke="#F8CB89" stroke-width="2.184" stroke-linecap="round" stroke-linejoin="round"/>
      <path d="M596.75,764.718 C586.036,766.109 581.156,759.953 570.27,759.998" fill-opacity="0" stroke="#F8CB89" stroke-width="2.184" stroke-linecap="round" stroke-linejoin="round"/>
      <path d="M603.533,756.692 C595.383,751.608 574.556,745.84 576.551,737.724" fill-opacity="0" stroke="#F8CB89" stroke-width="2.184" stroke-linecap="round" stroke-linejoin="round"/>
      <path d="M614.966,752.816 C615.969,739.753 614.305,719.188 606.257,714.789" fill-opacity="0" stroke="#F8CB89" stroke-width="2.184" stroke-linecap="round" stroke-linejoin="round"/>
      <path d="M594.345,727.921 C599.851,730.953 608.252,745.863 608.651,751.586" fill-opacity="0" stroke="#F8CB89" stroke-width="2.184" stroke-linecap="round" stroke-linejoin="round"/>
      <path d="M638.449,721.515 C630.447,727.99 628.566,747.642 622,754.619" fill-opacity="0" stroke="#F8CB89" stroke-width="2.184" stroke-linecap="round" stroke-linejoin="round"/>
      <path d="M663.265,760.5 C653.223,769.619 635.029,765.881 626.274,763.92" fill-opacity="0" stroke="#F8CB89" stroke-width="2.184" stroke-linecap="round" stroke-linejoin="round"/>
      <path d="M618.169,777.576 C617.736,789.91 621.486,810.862 629.842,812.48" fill-opacity="0" stroke="#F8CB89" stroke-width="2.184" stroke-linecap="round" stroke-linejoin="round"/>
      <path d="M428.109,283.981 C429.636,288.13 435.13,294.502 439.941,296.828 C417.621,330.946 341.987,337.535 310.685,264.568 C363.805,205.554 433.307,236.127 443.429,275.625 C438.151,276.298 430.879,280.538 428.109,283.981" fill="#FFFFFE"/>
      <path d="M360.021,148.204 C364.433,148.067 372.207,144.796 375.9,140.931 C401.492,172.701 384.358,246.66 305.271,253.887 C265.578,185.126 316.134,128.472 356.829,131.059 C355.815,136.303 357.639,144.522 360.021,148.204" fill="#FFFFFE"/>
      <path d="M209.892,171.002 C211.089,166.773 210.371,158.36 207.863,153.652 C245.971,139.152 311.027,178.286 293.472,255.733 C215.797,272.251 177.553,206.67 192.577,168.733 C197.25,171.344 205.629,172.153 209.892,171.002" fill="#FFFFFE"/>
      <path d="M185.167,320.857 C181.497,318.383 173.289,316.468 168.057,317.403 C166.017,276.662 223.332,226.904 291.568,267.531 C283.27,346.505 209.083,362.613 177.667,336.611 C181.565,332.975 184.928,325.246 185.167,320.857" fill="#FFFFFE"/>
      <path d="M320.021,390.655 C316.556,393.391 312.212,400.595 311.46,405.884 C272.098,395.215 242.483,325.326 302.192,272.991 C374.738,305.286 367.134,380.829 332.709,402.658 C330.429,397.825 324.136,392.239 320.021,390.655" fill="#FFFFFE"/>
      <path d="M310.685,264.568 L305.566,260.316 L305.27,253.887 L299.537,257.227 L293.472,255.734 L294.737,262.003 L291.568,267.532 L297.792,268.045 L302.192,272.992 L304.472,266.985 z" fill="#AB8072"/>
      <path d="M330.246,218.458 C324.216,231.486 315.985,231.579 308.781,248.779" fill-opacity="0" stroke="#F3B882" stroke-width="1.966" stroke-linecap="round" stroke-linejoin="round"/>
      <path d="M361.708,262.368 C355.017,255.939 335.479,262.869 317.912,263.827" fill-opacity="0" stroke="#F3B882" stroke-width="1.966" stroke-linecap="round" stroke-linejoin="round"/>
      <path d="M351.141,279.467 C337.405,283.513 326.165,275.352 316.191,268.387" fill-opacity="0" stroke="#F3B882" stroke-width="1.966" stroke-linecap="round" stroke-linejoin="round"/>
      <path d="M304.905,281.04 C309.237,292.884 315.073,310.302 313.124,322.078" fill-opacity="0" stroke="#F3B882" stroke-width="1.966" stroke-linecap="round" stroke-linejoin="round"/>
      <path d="M300.277,279.797 C298.875,288.267 305.726,305.365 302.192,314.941" fill-opacity="0" stroke="#F3B882" stroke-width="1.966" stroke-linecap="round" stroke-linejoin="round"/>
      <path d="M294.373,274.451 C290.851,281.119 274.31,296.303 274.812,305.081" fill-opacity="0" stroke="#F3B882" stroke-width="1.966" stroke-linecap="round" stroke-linejoin="round"/>
      <path d="M285.664,271.556 C276.875,277.86 269.671,274.725 260.095,279.911" fill-opacity="0" stroke="#F3B882" stroke-width="1.966" stroke-linecap="round" stroke-linejoin="round"/>
      <path d="M287.841,261.285 C278.265,260.669 257.177,265.411 255.113,257.329" fill-opacity="0" stroke="#F3B882" stroke-width="1.966" stroke-linecap="round" stroke-linejoin="round"/>
      <path d="M296.094,252.473 C290.805,240.481 279.622,223.154 270.446,223.074" fill-opacity="0" stroke="#F3B882" stroke-width="1.966" stroke-linecap="round" stroke-linejoin="round"/>
      <path d="M266.148,240.265 C272.44,240.345 286.895,249.521 289.95,254.377" fill-opacity="0" stroke="#F3B882" stroke-width="1.966" stroke-linecap="round" stroke-linejoin="round"/>
      <path d="M301.999,213.784 C298.009,223.28 305.635,241.485 303.15,250.741" fill-opacity="0" stroke="#F3B882" stroke-width="1.966" stroke-linecap="round" stroke-linejoin="round"/>
      <path d="M342.284,236.412 C337.747,249.202 319.942,254.502 311.312,256.919" fill-opacity="0" stroke="#F3B882" stroke-width="1.966" stroke-linecap="round" stroke-linejoin="round"/>
      <path d="M310.617,272.787 C316.066,283.856 329.266,300.533 337.405,298.025" fill-opacity="0" stroke="#F3B882" stroke-width="1.966" stroke-linecap="round" stroke-linejoin="round"/>
      <path d="M568.138,441.952 C571.489,444.825 579.423,447.675 584.758,447.332 C582.068,488.056 519.394,530.895 456.311,482.676 C473.638,405.178 549.192,397.723 577.394,427.156 C573.131,430.325 568.867,437.598 568.138,441.952" fill="#FFFFFE"/>
      <path d="M442.199,357.073 C445.984,354.77 451.136,348.113 452.458,342.938 C490.349,358.076 511.712,430.917 446.371,476.042 C378.021,435.591 394.276,361.427 431.005,343.69 C432.692,348.751 438.301,355.044 442.199,357.073" fill="#FFFFFE"/>
      <path d="M322.574,450.616 C321.526,446.33 316.783,439.353 312.292,436.481 C338.396,405.133 414.27,407.322 436.977,483.429 C377.405,535.934 311.905,497.541 306.365,457.137 C311.722,457.114 319.428,453.717 322.574,450.616" fill="#FFFFFE"/>
      <path d="M374.555,593.317 C370.155,592.975 362.061,595.324 357.958,598.698 C336.208,564.204 361.72,492.73 441.104,494.645 C472.635,567.509 415.889,617.963 375.763,610.736 C377.359,605.629 376.516,597.261 374.555,593.317" fill="#FFFFFE"/>
      <path d="M526.326,587.96 C524.661,592.041 524.388,600.454 526.326,605.424 C486.793,615.455 426.696,569.083 453.051,494.167 C532.094,486.712 562.553,556.271 543.265,592.201 C538.91,589.1 530.68,587.322 526.326,587.96" fill="#FFFFFE"/>
      <path d="M456.311,482.676 L449.745,481.49 L446.371,476.042 L442.974,481.741 L436.978,483.429 L441.15,488.262 L441.104,494.646 L446.758,492.024 L453.051,494.167 L452.093,487.852 z" fill="#AB8072"/>
      <path d="M450.726,432.901 C451.866,447.195 444.73,451.322 446.895,469.835" fill-opacity="0" stroke="#F8CB89" stroke-width="2.184" stroke-linecap="round" stroke-linejoin="round"/>
      <path d="M499.674,455.723 C490.714,453.397 477.081,469.015 462.239,478.482" fill-opacity="0" stroke="#F8CB89" stroke-width="2.184" stroke-linecap="round" stroke-linejoin="round"/>
      <path d="M498.876,475.814 C488.867,486.074 475.097,484.478 462.991,483.315" fill-opacity="0" stroke="#F8CB89" stroke-width="2.184" stroke-linecap="round" stroke-linejoin="round"/>
      <path d="M459.343,499.866 C468.941,508.051 482.575,520.362 486.656,531.601" fill-opacity="0" stroke="#F8CB89" stroke-width="2.184" stroke-linecap="round" stroke-linejoin="round"/>
      <path d="M454.715,501.052 C457.656,509.123 471.997,520.659 473.638,530.736" fill-opacity="0" stroke="#F8CB89" stroke-width="2.184" stroke-linecap="round" stroke-linejoin="round"/>
      <path d="M446.941,499.297 C447.146,506.843 440.192,528.183 444.935,535.592" fill-opacity="0" stroke="#F8CB89" stroke-width="2.184" stroke-linecap="round" stroke-linejoin="round"/>
      <path d="M437.935,501.052 C433.375,510.832 425.533,511.654 419.742,520.865" fill-opacity="0" stroke="#F8CB89" stroke-width="2.184" stroke-linecap="round" stroke-linejoin="round"/>
      <path d="M434.789,491.021 C426.148,495.17 410.098,509.67 404.33,503.628" fill-opacity="0" stroke="#F8CB89" stroke-width="2.184" stroke-linecap="round" stroke-linejoin="round"/>
      <path d="M437.662,479.302 C427.175,471.431 408.936,461.81 400.888,466.256" fill-opacity="0" stroke="#F8CB89" stroke-width="2.184" stroke-linecap="round" stroke-linejoin="round"/>
      <path d="M405.584,483.36 C411.102,480.35 428.178,481.24 433.239,483.975" fill-opacity="0" stroke="#F8CB89" stroke-width="2.184" stroke-linecap="round" stroke-linejoin="round"/>
      <path d="M423.8,442.682 C424.986,452.919 440.58,465.025 442.951,474.327" fill-opacity="0" stroke="#F8CB89" stroke-width="2.184" stroke-linecap="round" stroke-linejoin="round"/>
      <path d="M470.013,442.636 C472.339,455.996 459.435,469.356 453.096,475.722" fill-opacity="0" stroke="#F8CB89" stroke-width="2.184" stroke-linecap="round" stroke-linejoin="round"/>
      <path d="M460.278,489.857 C470.446,496.834 490.144,504.905 496.027,498.726" fill-opacity="0" stroke="#F8CB89" stroke-width="2.184" stroke-linecap="round" stroke-linejoin="round"/>
    </g>
  </g>
</svg>
